{"title":"Things We Lost in the Fire *2007*[BluRay][1080p][ENG, POL]","uid":5939864,"size":7980932025,"categoryP":"video","categoryS":"hd___movies","magnet":"?xt=urn:btih:8be3dfd45593f8ecadd71cecc5c8461858bf5e8d&amp;dn=Things+We+Lost+in+the+Fire+%2A2007%2A%5BBluRay%5D%5B1080p%5D%5BENG%2C+POL%5D+&amp;tr=udp%3A%2F%2Ftracker.openbittorrent.com%3A80&amp;tr=udp%3A%2F%2Fopen.demonii.com%3A1337&amp;tr=udp%3A%2F%2Ftracker.coppersurfer.tk%3A6969&amp;tr=udp%3A%2F%2Fexodus.desync.com%3A6969","seeders":0,"leechers":1,"uploader":"albedo040","files":1,"time":1289121189,"description":"Things We Lost in the Fire *2007*[BluRay][1080p][ENG, POL]\n\nGeneral information:\nCountry: USA, UK \nRelease: 26 September 2007 (San SebastiÃƒÂ¡n Film Festival)\nGenre: Drama \nDirector: Susanne Bier\nScreenplay: Allan Loeb\nOriginal Music: Johan SÃƒÂ¶derqvist\nCinematography by: Tom Stern \nDuration: 1h 58mn\nLanguage: English, Polish\nSubtitles: English, Polish\nRating: 7.6/10 - 2241 votes\n[img]http://img440.imageshack.us/img440/244/22470642.jpg[/img]\n\n[img]http://img836.imageshack.us/img836/6493/beznazwy1sa.jpg[/img]\n\nCast:\nHalle Berry  ...  Audrey Burke  \nBenicio Del Toro  ...  Jerry Sunborne  \nDavid Duchovny  ...  Brian Burke  \nAlexis Llewellyn  ...  Harper Burke  \nMicah Berry  ...  Dory Burke  \nJohn Carroll Lynch  ...  Howard Glassman  \nAlison Lohman  ...  Kelly  \nRobin Weigert  ...  Brenda  \nOmar Benson Miller  ...  Neal  \nPaula Newsome  ...  Diane  \nSarah Dubrovsky  ...  Spring  \nMaureen Thomas  ...  Grandma Ginnie Burke  \nPatricia Harras  ...  Howard's Wife  \nV.J. Foster  ...  Distressed Man (as VJ Foster)  \nCaroline Field  ...  Teresa Haddock (as Carolyn Field)  \n\nPlot:\nA recent widow invites her husband's troubled best friend to live with her and her two children. As he gradually turns his life around, he helps the family cope and confront their loss. \n\nSpecifications:\nGeneral\nFormat                           : Matroska\nOverall bit rate                 : 9 006 Kbps\n\nVideo\nFormat                           : AVC\nFormat/Info                      : Advanced Video Codec\nFormat profile                   : &lt;a class=&quot;__cf_email__&quot; href=&quot;/cdn-cgi/l/email-protection&quot; data-cfemail=&quot;c48cada3ac8488f0eaf4&quot;&gt;[email&amp;#160;protected]&lt;/a&gt;&lt;script cf-hash='f9e31' type=&quot;text/javascript&quot;&gt;\n/* &lt;![CDATA[ */!function(){try{var t=&quot;currentScript&quot;in document?document.currentScript:function(){for(var t=document.getElementsByTagName(&quot;script&quot;),e=t.length;e--;)if(t[e].getAttribute(&quot;cf-hash&quot;))return t[e]}();if(t&amp;&amp;t.previousSibling){var e,r,n,i,c=t.previousSibling,a=c.getAttribute(&quot;data-cfemail&quot;);if(a){for(e=&quot;&quot;,r=parseInt(a.substr(0,2),16),n=2;a.length-n;n+=2)i=parseInt(a.substr(n,2),16)^r,e+=String.fromCharCode(i);e=document.createTextNode(e),c.parentNode.replaceChild(e,c)}}}catch(u){}}();/* ]]&gt; */&lt;/script&gt;\nFormat settings, CABAC           : Yes\nFormat settings, ReFrames        : 3 frames\nFormat settings, GOP             : M=4, N=29\nMuxing mode                      : Container profile=&lt;a class=&quot;__cf_email__&quot; href=&quot;/cdn-cgi/l/email-protection&quot; data-cfemail=&quot;297c474247465e47691d0719&quot;&gt;[email&amp;#160;protected]&lt;/a&gt;&lt;script cf-hash='f9e31' type=&quot;text/javascript&quot;&gt;\n/* &lt;![CDATA[ */!function(){try{var t=&quot;currentScript&quot;in document?document.currentScript:function(){for(var t=document.getElementsByTagName(&quot;script&quot;),e=t.length;e--;)if(t[e].getAttribute(&quot;cf-hash&quot;))return t[e]}();if(t&amp;&amp;t.previousSibling){var e,r,n,i,c=t.previousSibling,a=c.getAttribute(&quot;data-cfemail&quot;);if(a){for(e=&quot;&quot;,r=parseInt(a.substr(0,2),16),n=2;a.length-n;n+=2)i=parseInt(a.substr(n,2),16)^r,e+=String.fromCharCode(i);e=document.createTextNode(e),c.parentNode.replaceChild(e,c)}}}catch(u){}}();/* ]]&gt; */&lt;/script&gt;\nCodec ID                         : V_MPEG4/ISO/AVC\nBit rate                         : 7 928 Kbps\nWidth                            : 1 920 pixels\nHeight                           : 1 080 pixels\nDisplay aspect ratio             : 16:9\nFrame rate                       : 23.976 fps\n\nAudio 1\nFormat                           : AC-3\nFormat/Info                      : Audio Coding 3\nMode extension                   : CM (complete main)\nCodec ID                         : A_AC3\nBit rate mode                    : Constant\nBit rate                         : 640 Kbps\nChannel(s)                       : 6 channels\nChannel positions                : Front: L C R, Side: L R, LFE\nSampling rate                    : 48.0 KHz\nStream size                      : 541 MiB (7%)\nTitle                            : English\n\nAudio 2\nFormat                           : AC-3\nFormat/Info                      : Audio Coding 3\nMode extension                   : CM (complete main)\nCodec ID                         : A_AC3\nBit rate mode                    : Constant\nBit rate                         : 448 Kbps\nChannel(s)                       : 6 channels\nChannel positions                : Front: L C R, Side: L R, LFE\nSampling rate                    : 48.0 KHz\nStream size                      : 379 MiB (5%)\nTitle                            : Polish\nLanguage                         : Polish\n\nText 1\nFormat                           : UTF-8\nCodec ID                         : S_TEXT/UTF8\nCodec ID/Info                    : UTF-8 Plain Text\nTitle                            : English\n\nText 2\nFormat                           : UTF-8\nCodec ID                         : S_TEXT/UTF8\nCodec ID/Info                    : UTF-8 Plain Text\nTitle                            : Polish\nLanguage                         : Polish\n","torrent":{"xt":"urn:btih:8be3dfd45593f8ecadd71cecc5c8461858bf5e8d","amp;dn":"Things+We+Lost+in+the+Fire+%2A2007%2A%5BBluRay%5D%5B1080p%5D%5BENG%2C+POL%5D+","amp;tr":["udp%3A%2F%2Ftracker.openbittorrent.com%3A80","udp%3A%2F%2Fopen.demonii.com%3A1337","udp%3A%2F%2Ftracker.coppersurfer.tk%3A6969","udp%3A%2F%2Fexodus.desync.com%3A6969"],"infoHash":"8be3dfd45593f8ecadd71cecc5c8461858bf5e8d","infoHashBuffer":{"type":"Buffer","data":[139,227,223,212,85,147,248,236,173,215,28,236,197,200,70,24,88,191,94,141]},"announce":[],"urlList":[]}}